<mxfile host="app.diagrams.net" modified="2022-01-05T14:51:34.669Z" agent="5.0 (Windows NT 10.0; Win64; x64) AppleWebKit/537.36 (KHTML, like Gecko) Chrome/96.0.4664.110 Safari/537.36" etag="Za2bU-yTyZWHQQI0Hlem" version="16.2.2" type="github">
  <diagram id="GEX2y6B2Zi1g-JJJD1X1" name="Page-1">
    <mxGraphModel dx="1422" dy="705" grid="1" gridSize="10" guides="1" tooltips="1" connect="1" arrows="1" fold="1" page="1" pageScale="1" pageWidth="850" pageHeight="1100" math="0" shadow="0">
      <root>
        <mxCell id="0" />
        <mxCell id="1" parent="0" />
        <mxCell id="N-pckL8OUqqcfdtkvyHP-3" value="" style="edgeStyle=orthogonalEdgeStyle;rounded=0;orthogonalLoop=1;jettySize=auto;html=1;" edge="1" parent="1" source="N-pckL8OUqqcfdtkvyHP-1" target="N-pckL8OUqqcfdtkvyHP-2">
          <mxGeometry relative="1" as="geometry" />
        </mxCell>
        <mxCell id="N-pckL8OUqqcfdtkvyHP-1" value="Start" style="rounded=1;whiteSpace=wrap;html=1;" vertex="1" parent="1">
          <mxGeometry x="330" y="30" width="120" height="60" as="geometry" />
        </mxCell>
        <mxCell id="N-pckL8OUqqcfdtkvyHP-5" value="" style="edgeStyle=orthogonalEdgeStyle;rounded=0;orthogonalLoop=1;jettySize=auto;html=1;" edge="1" parent="1" source="N-pckL8OUqqcfdtkvyHP-2" target="N-pckL8OUqqcfdtkvyHP-4">
          <mxGeometry relative="1" as="geometry" />
        </mxCell>
        <mxCell id="N-pckL8OUqqcfdtkvyHP-7" value="" style="edgeStyle=orthogonalEdgeStyle;rounded=0;orthogonalLoop=1;jettySize=auto;html=1;" edge="1" parent="1" source="N-pckL8OUqqcfdtkvyHP-2" target="N-pckL8OUqqcfdtkvyHP-6">
          <mxGeometry relative="1" as="geometry" />
        </mxCell>
        <mxCell id="N-pckL8OUqqcfdtkvyHP-2" value="User Input" style="rhombus;whiteSpace=wrap;html=1;rounded=1;" vertex="1" parent="1">
          <mxGeometry x="350" y="160" width="80" height="80" as="geometry" />
        </mxCell>
        <mxCell id="N-pckL8OUqqcfdtkvyHP-4" value="Correct user input&amp;nbsp;&lt;br&gt;add the new letter&amp;nbsp;&lt;br&gt;display again the current word&amp;nbsp;" style="rounded=1;whiteSpace=wrap;html=1;" vertex="1" parent="1">
          <mxGeometry x="490" y="170" width="120" height="60" as="geometry" />
        </mxCell>
        <mxCell id="N-pckL8OUqqcfdtkvyHP-9" value="" style="edgeStyle=orthogonalEdgeStyle;rounded=0;orthogonalLoop=1;jettySize=auto;html=1;" edge="1" parent="1" source="N-pckL8OUqqcfdtkvyHP-6" target="N-pckL8OUqqcfdtkvyHP-8">
          <mxGeometry relative="1" as="geometry" />
        </mxCell>
        <mxCell id="N-pckL8OUqqcfdtkvyHP-11" value="" style="edgeStyle=orthogonalEdgeStyle;rounded=0;orthogonalLoop=1;jettySize=auto;html=1;" edge="1" parent="1" source="N-pckL8OUqqcfdtkvyHP-6" target="N-pckL8OUqqcfdtkvyHP-10">
          <mxGeometry relative="1" as="geometry" />
        </mxCell>
        <mxCell id="N-pckL8OUqqcfdtkvyHP-6" value="Max retries reached&amp;nbsp;" style="rhombus;whiteSpace=wrap;html=1;rounded=1;" vertex="1" parent="1">
          <mxGeometry x="350" y="320" width="80" height="80" as="geometry" />
        </mxCell>
        <mxCell id="N-pckL8OUqqcfdtkvyHP-8" value="Game end" style="whiteSpace=wrap;html=1;rounded=1;" vertex="1" parent="1">
          <mxGeometry x="330" y="490" width="120" height="60" as="geometry" />
        </mxCell>
        <mxCell id="N-pckL8OUqqcfdtkvyHP-10" value="Update Hangman status&amp;nbsp;&lt;br&gt;max retires allowed -1&amp;nbsp;" style="rounded=1;whiteSpace=wrap;html=1;" vertex="1" parent="1">
          <mxGeometry x="490" y="330" width="120" height="60" as="geometry" />
        </mxCell>
        <mxCell id="N-pckL8OUqqcfdtkvyHP-12" value="" style="endArrow=classic;html=1;rounded=0;entryX=1;entryY=1;entryDx=0;entryDy=0;exitX=0.5;exitY=0;exitDx=0;exitDy=0;" edge="1" parent="1" source="N-pckL8OUqqcfdtkvyHP-10" target="N-pckL8OUqqcfdtkvyHP-2">
          <mxGeometry width="50" height="50" relative="1" as="geometry">
            <mxPoint x="400" y="340" as="sourcePoint" />
            <mxPoint x="450" y="290" as="targetPoint" />
            <Array as="points">
              <mxPoint x="440" y="260" />
            </Array>
          </mxGeometry>
        </mxCell>
      </root>
    </mxGraphModel>
  </diagram>
</mxfile>
